<?xml version="1.0" encoding="utf-8"?>
<!-- Generator: Adobe Illustrator 20.0.0, SVG Export Plug-In . SVG Version: 6.00 Build 0)  -->
<svg version="1.1" id="Layer_1" xmlns="http://www.w3.org/2000/svg" xmlns:xlink="http://www.w3.org/1999/xlink" x="0px" y="0px"
	 viewBox="0 0 552 455" style="enable-background:new 0 0 552 455;" xml:space="preserve">
<style type="text/css">
	.st0{fill:#FF0F03;}
	.st1{fill:#F7F4F2;}
	.st2{fill:#020202;}
	.st3{fill:#70FF57;}
	.st4{fill:#FFFFFF;}
	.st5{fill:#68087F;}
</style>
<g>
	<path class="st0" d="M363.6,398.2c2.1,4.5,3.2,9.2,2.3,14.1c-1.5,10.4-10.5,17.7-22.9,19c-11.9,1.1-23.2-0.8-34.3-4.4
		c-5.2-1.8-10.2-3.9-14.9-6.2c-0.8-0.4-1.7-0.3-2.3,0.3c-3.8,3.3-8.6,5.2-13.8,5.2c-4.7,0-9.2-1.6-12.8-4.4
		c-0.6-0.5-1.4-0.6-2.1-0.3c-4.9,2.1-10,4-15.2,5.6c-11.2,3.2-22.6,4.6-34.4,3c-12.3-1.7-21.1-9.5-22.1-19.9
		c-0.6-4.9,0.7-9.6,2.9-13.9c2.3-4.4,2.8-8.6,1.4-13.5c-1.2-3.9-1.8-8.2-1.7-12.2c0.2-9,5.8-14.1,15.6-15c0,0,0,0,0.1,0
		c1.9-0.2,2.7-2.4,1.4-3.7L19,165.9c-1.3-1.3-0.5-3.6,1.4-3.7c27-1.9,50.4-3.7,72.1-5.5c1-0.1,1.9-0.9,2-1.9
		c0.9-8.1,2.8-14.9,4.1-20.3c2.1-8.8,4.9-2.6,16.8,14.9c0-1.1,0-2.2,0-3.2c0-96.7,73-134.2,164.3-134.2S445.9,49.3,445.9,146
		c0,0.1,0,0.2,0,0.3c10.2-15.1,12.8-20.2,14.8-11.9c1.3,5.5,3.3,12.4,4.1,20.7c0.1,1,0.9,1.9,2,2c18.9,1.7,39.5,3.4,63.5,5.1
		c1.8,0.1,2.7,2.4,1.4,3.7l-189.5,187c-1.4,1.4-0.4,3.7,1.5,3.7c2.1,0,4.2,0.1,6.3,0.3c9.8,1.2,15.2,6.7,15,15.6
		c0,4.1-0.8,8.3-2.2,12.2C361.2,389.4,361.6,393.7,363.6,398.2z"/>
	<path class="st1" d="M455.6,201.4c-9.1,18-20.6,32.2-31.2,39.5c-29.4,67.2-85.7,124.6-148.1,124.6c-62.4,0-114.7-57.4-141.6-124.6
		c-10.6-7.4-22.1-21.6-31.2-39.5c-15.4-30.7-8.4-53.3-5-67c2.1-8.8,4.9-2.6,16.8,14.9c0-1.1,0-2.2,0-3.2
		c0-96.7,73-134.2,164.3-134.2S445.9,49.3,445.9,146c0,0.1,0,0.2,0,0.3c10.2-15.1,12.8-20.2,14.8-11.9
		C464,148.2,471.1,170.8,455.6,201.4z"/>
	<path class="st2" d="M137.4,246.6c-15.2-38-22-63-22-101.2c0-96.7,73-134.2,164.3-134.2s166.3,37.5,166.3,134.2
		c0,30.4-7.7,63.4-21.2,94.3c0.6-6.5,0.9-13.3,0.9-20.1c0-72.8-35.1-131.8-78.5-131.8c-24.4,0-46.2,18.7-60.6,48
		c-15.1-29.3-38-48-63.7-48c-45.6,0-68.7,38.6-82.3,110.1C138,212.2,134.4,233,137.4,246.6z"/>
	<path class="st3" d="M262.2,203c0,14.6-16.1,25.4-30.7,25.4s-26.4-11.8-26.4-26.4s11.7-33.8,26.3-33.8
		C246,168.3,262.2,188.5,262.2,203z M336.6,168.3c-14.6,0-31.6,19.3-31.6,33.8s17,26.4,31.6,26.4s26.4-11.8,26.4-26.4
		S351.2,168.3,336.6,168.3z"/>
	<path class="st2" d="M343.3,147.2c-22,4.6-37.5,12.6-35.6,17.3c2,4.7,20.6,1.3,41.7-7.6c21-8.9,36.5-19.9,34.5-24.6
		C381.9,127.7,365.5,142.5,343.3,147.2z M182.4,136.1c-1.7,4.8,14.5,14.7,36.2,22c21.6,7.3,40.5,9.4,42.1,4.5
		c1.7-4.8-14.5-11.6-36.7-14.7C201.6,144.9,184.1,131.3,182.4,136.1z"/>
	<path class="st2" d="M283.9,247.5c7.1-2.4,17.9-8.4,18-14.5c0.1-5.8-10.2-11.6-16.7-14.5c-1.1-0.4-1.8-1.3-1.6-2l0,0
		c0.2-0.7,1.5-1,2.8-0.4c32,16.9,28.9,22.8-1.5,34c-1.3,0.5-2.7,0.1-2.8-0.6l0,0C281.9,248.6,282.7,247.8,283.9,247.5z"/>
	<path class="st2" d="M281.6,270c30,0.1,53.8-7.2,67.8-12.8c-14.3,27.9-39.1,54.1-67.3,54.1c-28.2,0-53-26.2-67.3-54.2
		C228.7,262.7,252,269.8,281.6,270z"/>
	<path class="st0" d="M282.1,284.3c15.7,0,28.5,8.1,28.6,18.2c-8.9,5.6-18.6,9-28.6,9c-10.1,0-19.7-3.3-28.6-9
		C253.6,292.4,266.4,284.3,282.1,284.3z"/>
	<path class="st4" d="M238.7,287.7l-7.2-24.8c4.1,1.2,8.7,2.3,13.4,3.3L238.7,287.7z M331.2,263.2c-4.1,1.1-8.5,2.2-13.2,3.1
		l6.2,21.3L331.2,263.2z"/>
	<path class="st2" d="M353.1,202.1c0,9.1-7.4,16.5-16.5,16.5c-9.1,0-16.5-7.4-16.5-16.5s7.4-16.5,16.5-16.5S353.1,193,353.1,202.1z
		 M231.5,186.5c-9.1,0-16.5,7.4-16.5,16.5s7.4,16.5,16.5,16.5c9.1,0,16.5-7.4,16.5-16.5S240.6,186.5,231.5,186.5z"/>
	<path class="st4" d="M240.6,198.5c0,2.6-2,4.6-4.6,4.6s-4.6-2-4.6-4.6s2-4.6,4.6-4.6S240.6,195.9,240.6,198.5z M330.4,193.9
		c-2.6,0-4.6,2-4.6,4.6s2,4.6,4.6,4.6s4.6-2,4.6-4.6C335,195.9,333,193.9,330.4,193.9z"/>
	<path class="st5" d="M366,412.2c-1.5,10.4-10.5,17.7-22.9,19c-11.9,1.1-23.2-0.8-34.3-4.4c-5.6-1.9-11.1-4.3-16.2-6.8
		c-4,3.8-9.2,6.1-14.8,6.1c-5.2,0-10-1.9-13.8-5.2c-5.2,2.3-10.7,4.4-16.4,6.1c-11.2,3.2-22.6,4.6-34.4,3
		c-12.3-1.7-21.1-9.5-22.1-19.9c-0.6-4.9,0.7-9.6,2.9-13.9c2.3-4.4,2.8-8.6,1.4-13.5c-1.2-3.9-1.8-8.2-1.7-12.2
		c0.2-9,5.8-14.1,15.6-15c7.4-0.6,14.7,0.8,21.7,3.1c13,4.4,23.7,11.7,33.8,19.8c3.7-2.8,8.1-4.5,12.9-4.5c5.2,0,9.9,1.9,13.8,5.2
		c11.1-8.4,22.6-15.8,36.6-19.9c7.1-2,14.4-3.1,21.8-2.2c9.8,1.2,15.2,6.7,15,15.6c0,4.1-0.8,8.3-2.2,12.2
		c-1.6,4.8-1.2,9.1,0.8,13.6C365.7,402.6,366.8,407.3,366,412.2z"/>
	<path class="st2" d="M301.3,399.8c0,14.4-10.3,26.1-23,26.1c-12.7,0-23-11.7-23-26.1c0-14.4,10.3-26.1,23-26.1
		C291,373.7,301.3,385.4,301.3,399.8z"/>
</g>
</svg>
